<svg width="1121" height="551" viewBox="0 0 1121 551" fill="none" xmlns="http://www.w3.org/2000/svg">
<g id="photography">
<path id="photography." d="M109.328 228.727C110.37 228.727 111.542 228.857 112.844 229.117C114.146 229.378 115.318 229.898 116.359 230.68C117.401 231.331 118.182 232.242 118.703 233.414C119.354 234.586 119.419 236.083 118.898 237.906C119.419 237.776 120.201 237.646 121.242 237.516C122.284 237.255 123.391 236.995 124.562 236.734C125.865 236.474 127.036 236.279 128.078 236.148C129.12 235.888 129.836 235.693 130.227 235.562H131.203C136.672 235.562 142.206 236.474 147.805 238.297C153.404 239.99 158.417 242.464 162.844 245.719C167.271 248.974 170.917 252.945 173.781 257.633C176.776 262.32 178.273 267.594 178.273 273.453C178.273 279.964 176.776 285.953 173.781 291.422C170.786 296.76 166.88 301.383 162.062 305.289C157.375 309.195 152.036 312.255 146.047 314.469C140.188 316.682 134.328 317.789 128.469 317.789C128.469 321.565 128.794 325.341 129.445 329.117C130.227 332.763 130.943 336.344 131.594 339.859C132.375 343.505 133.091 347.086 133.742 350.602C134.523 354.247 134.914 357.828 134.914 361.344C134.914 362.385 134.523 363.232 133.742 363.883C133.091 364.534 132.245 364.859 131.203 364.859C130.031 364.859 129.055 364.339 128.273 363.297C127.622 362.255 127.102 361.083 126.711 359.781C126.451 358.479 126.19 357.177 125.93 355.875C125.799 354.703 125.734 353.857 125.734 353.336C125.474 351.513 125.018 348.583 124.367 344.547C123.846 340.641 123.195 336.279 122.414 331.461C121.633 326.513 120.786 321.37 119.875 316.031C119.094 310.562 118.312 305.354 117.531 300.406C116.88 295.458 116.229 291.096 115.578 287.32C115.057 283.414 114.667 280.549 114.406 278.727L109.328 228.727ZM118.703 254.898V256.852C118.703 257.503 118.703 258.284 118.703 259.195C118.833 259.977 118.898 260.693 118.898 261.344V262.711C119.159 264.924 119.484 267.594 119.875 270.719C120.266 273.844 120.721 277.164 121.242 280.68C121.763 284.065 122.284 287.516 122.805 291.031C123.326 294.547 123.781 297.737 124.172 300.602C124.562 303.336 124.888 305.615 125.148 307.438C125.409 309.26 125.604 310.237 125.734 310.367C130.943 311.539 136.216 311.279 141.555 309.586C146.893 307.763 151.711 304.964 156.008 301.188C160.305 297.281 163.885 292.789 166.75 287.711C169.615 282.633 171.112 277.424 171.242 272.086C171.242 267.268 170.07 263.167 167.727 259.781C165.513 256.266 162.648 253.401 159.133 251.188C155.617 248.844 151.646 247.151 147.219 246.109C142.922 244.938 138.625 244.352 134.328 244.352C132.245 244.352 130.227 244.482 128.273 244.742C126.451 245.003 124.823 245.458 123.391 246.109C121.958 246.76 120.786 247.802 119.875 249.234C119.094 250.667 118.703 252.555 118.703 254.898ZM186.477 183.609L194.875 182.242L203.859 288.688C204.771 284.26 206.138 279.443 207.961 274.234C209.784 269.026 212.193 264.273 215.188 259.977C218.312 255.68 222.089 252.359 226.516 250.016C231.073 247.542 236.346 246.891 242.336 248.062C246.503 248.714 250.083 250.341 253.078 252.945C256.203 255.419 258.872 258.479 261.086 262.125C263.299 265.771 265.057 269.807 266.359 274.234C267.792 278.531 268.898 282.958 269.68 287.516C270.461 291.943 270.982 296.24 271.242 300.406C271.633 304.573 271.828 308.219 271.828 311.344C271.828 314.078 271.568 315.966 271.047 317.008C270.656 317.919 269.484 318.375 267.531 318.375C266.62 318.375 265.708 318.31 264.797 318.18C263.885 317.919 263.234 317.138 262.844 315.836C263.104 313.362 263.234 310.107 263.234 306.07C263.234 302.034 262.974 297.867 262.453 293.57C262.062 289.273 261.346 284.977 260.305 280.68C259.263 276.253 257.766 272.281 255.812 268.766C253.99 265.25 251.581 262.451 248.586 260.367C245.591 258.154 242.01 257.047 237.844 257.047C233.547 257.047 229.771 258.023 226.516 259.977C223.391 261.799 220.721 264.208 218.508 267.203C216.424 270.198 214.732 273.583 213.43 277.359C212.128 281.005 211.216 284.781 210.695 288.688C210.695 289.729 210.565 291.422 210.305 293.766C210.174 295.979 209.979 298.518 209.719 301.383C209.458 304.117 209.263 307.112 209.133 310.367C209.003 313.492 208.872 316.487 208.742 319.352C208.612 322.086 208.482 324.56 208.352 326.773C208.352 328.987 208.352 330.615 208.352 331.656C207.961 332.958 207.375 333.74 206.594 334C205.812 334.13 204.901 334.195 203.859 334.195C203.729 334.195 203.339 334.13 202.688 334C202.167 334 201.776 334 201.516 334L186.477 183.609ZM277.297 304.508C277.297 301.904 277.297 298.453 277.297 294.156C277.427 289.729 277.753 285.042 278.273 280.094C278.794 275.016 279.576 269.872 280.617 264.664C281.659 259.456 283.156 254.768 285.109 250.602C287.062 246.435 289.536 243.049 292.531 240.445C295.526 237.841 299.237 236.539 303.664 236.539C309.784 236.539 314.667 238.232 318.312 241.617C322.089 245.003 324.953 249.234 326.906 254.312C328.99 259.26 330.357 264.599 331.008 270.328C331.789 275.927 332.18 281.005 332.18 285.562C332.18 290.51 331.464 295.849 330.031 301.578C328.599 307.307 326.385 312.581 323.391 317.398C320.396 322.216 316.62 326.253 312.062 329.508C307.635 332.633 302.297 334.195 296.047 334.195C292.01 334.195 288.755 333.284 286.281 331.461C283.807 329.508 281.919 327.099 280.617 324.234C279.445 321.37 278.599 318.18 278.078 314.664C277.557 311.148 277.297 307.763 277.297 304.508ZM283.938 302.164C283.938 304.638 284.003 307.242 284.133 309.977C284.263 312.581 284.654 315.055 285.305 317.398C285.956 319.742 287.128 321.63 288.82 323.062C290.513 324.495 292.987 325.211 296.242 325.211C301.971 325.211 306.659 323.909 310.305 321.305C314.081 318.701 317.076 315.38 319.289 311.344C321.503 307.177 323 302.62 323.781 297.672C324.693 292.724 325.148 287.971 325.148 283.414C325.148 280.549 324.888 276.839 324.367 272.281C323.977 267.724 323.065 263.297 321.633 259C320.201 254.703 318.117 251.057 315.383 248.062C312.648 244.938 309.068 243.375 304.641 243.375C301.516 243.375 298.781 244.612 296.438 247.086C294.224 249.56 292.336 252.75 290.773 256.656C289.211 260.562 287.974 264.859 287.062 269.547C286.281 274.234 285.63 278.727 285.109 283.023C284.589 287.32 284.263 291.227 284.133 294.742C284.003 298.258 283.938 300.732 283.938 302.164ZM378.273 272.867C375.409 272.867 372.544 273.258 369.68 274.039C366.815 274.82 363.951 275.667 361.086 276.578C358.352 277.359 355.552 278.141 352.688 278.922C349.953 279.573 347.089 279.898 344.094 279.898C342.401 279.898 341.034 279.573 339.992 278.922C338.951 278.271 338.43 276.969 338.43 275.016C338.43 273.453 338.82 272.411 339.602 271.891C340.513 271.24 341.555 270.914 342.727 270.914C344.029 270.784 345.331 270.784 346.633 270.914C348.065 271.044 349.172 270.979 349.953 270.719C350.995 270.458 352.883 270.003 355.617 269.352C358.482 268.701 361.477 268.049 364.602 267.398C367.727 266.747 370.656 266.096 373.391 265.445C376.255 264.794 378.208 264.273 379.25 263.883C379.25 263.492 379.25 262.841 379.25 261.93C379.38 260.888 379.445 259.846 379.445 258.805C379.576 257.633 379.641 256.591 379.641 255.68V253.531C379.641 249.625 379.38 245.849 378.859 242.203C378.339 238.427 377.753 234.651 377.102 230.875C376.581 227.099 376.06 223.323 375.539 219.547C375.018 215.771 374.758 211.995 374.758 208.219C374.758 206.917 374.888 205.68 375.148 204.508C375.539 203.206 376.581 202.555 378.273 202.555C378.924 202.555 379.576 202.75 380.227 203.141C381.008 203.401 381.464 203.987 381.594 204.898L388.43 261.344C388.56 261.474 388.69 261.539 388.82 261.539H389.406C390.708 261.539 392.727 261.214 395.461 260.562C398.195 259.911 401.255 259.13 404.641 258.219C408.026 257.307 411.607 256.331 415.383 255.289C419.289 254.247 423 253.336 426.516 252.555C430.031 251.643 433.221 250.992 436.086 250.602C438.951 250.081 441.164 250.016 442.727 250.406C443.247 250.536 444.094 251.188 445.266 252.359C446.438 253.401 447.154 254.182 447.414 254.703C447.674 256.005 446.568 257.307 444.094 258.609C441.62 259.781 438.365 260.953 434.328 262.125C430.422 263.167 426.06 264.143 421.242 265.055C416.424 265.966 411.802 266.812 407.375 267.594C403.078 268.245 399.367 268.896 396.242 269.547C393.117 270.068 391.229 270.458 390.578 270.719V274.625C390.578 276.318 390.513 278.206 390.383 280.289C390.383 282.242 390.383 284.13 390.383 285.953V289.859C390.383 296.5 390.839 303.01 391.75 309.391C392.661 315.641 393.117 321.956 393.117 328.336C393.117 329.247 392.857 330.029 392.336 330.68C391.815 331.201 391.164 331.721 390.383 332.242C389.602 332.633 388.82 333.023 388.039 333.414C387.258 333.674 386.672 333.87 386.281 334C385.24 328.401 384.458 323.323 383.938 318.766C383.547 314.078 383.221 309.456 382.961 304.898C382.831 300.341 382.635 295.523 382.375 290.445C382.245 285.237 381.984 279.378 381.594 272.867H378.273ZM435.5 304.508C435.5 301.904 435.5 298.453 435.5 294.156C435.63 289.729 435.956 285.042 436.477 280.094C436.997 275.016 437.779 269.872 438.82 264.664C439.862 259.456 441.359 254.768 443.312 250.602C445.266 246.435 447.74 243.049 450.734 240.445C453.729 237.841 457.44 236.539 461.867 236.539C467.987 236.539 472.87 238.232 476.516 241.617C480.292 245.003 483.156 249.234 485.109 254.312C487.193 259.26 488.56 264.599 489.211 270.328C489.992 275.927 490.383 281.005 490.383 285.562C490.383 290.51 489.667 295.849 488.234 301.578C486.802 307.307 484.589 312.581 481.594 317.398C478.599 322.216 474.823 326.253 470.266 329.508C465.839 332.633 460.5 334.195 454.25 334.195C450.214 334.195 446.958 333.284 444.484 331.461C442.01 329.508 440.122 327.099 438.82 324.234C437.648 321.37 436.802 318.18 436.281 314.664C435.76 311.148 435.5 307.763 435.5 304.508ZM442.141 302.164C442.141 304.638 442.206 307.242 442.336 309.977C442.466 312.581 442.857 315.055 443.508 317.398C444.159 319.742 445.331 321.63 447.023 323.062C448.716 324.495 451.19 325.211 454.445 325.211C460.174 325.211 464.862 323.909 468.508 321.305C472.284 318.701 475.279 315.38 477.492 311.344C479.706 307.177 481.203 302.62 481.984 297.672C482.896 292.724 483.352 287.971 483.352 283.414C483.352 280.549 483.091 276.839 482.57 272.281C482.18 267.724 481.268 263.297 479.836 259C478.404 254.703 476.32 251.057 473.586 248.062C470.852 244.938 467.271 243.375 462.844 243.375C459.719 243.375 456.984 244.612 454.641 247.086C452.427 249.56 450.539 252.75 448.977 256.656C447.414 260.562 446.177 264.859 445.266 269.547C444.484 274.234 443.833 278.727 443.312 283.023C442.792 287.32 442.466 291.227 442.336 294.742C442.206 298.258 442.141 300.732 442.141 302.164ZM519.875 408.805C519.875 407.633 519.94 406.396 520.07 405.094C520.331 403.922 520.721 403.141 521.242 402.75C521.893 402.49 522.609 402.88 523.391 403.922C524.302 404.964 525.409 407.112 526.711 410.367C530.878 410.367 534.654 409.456 538.039 407.633C541.555 405.94 544.68 403.596 547.414 400.602C550.148 397.607 552.427 394.156 554.25 390.25C556.203 386.344 557.831 382.307 559.133 378.141C560.435 373.974 561.346 369.807 561.867 365.641C562.518 361.604 562.844 357.828 562.844 354.312C562.844 340.771 561.542 326.969 558.938 312.906C556.333 298.714 552.362 285.367 547.023 272.867C544.419 278.596 542.141 284.521 540.188 290.641C538.234 296.76 535.891 302.685 533.156 308.414C530.422 314.013 527.036 319.091 523 323.648C519.094 328.076 513.82 331.591 507.18 334.195C504.836 334.195 502.948 333.609 501.516 332.438C500.214 331.135 499.172 329.573 498.391 327.75C497.74 325.927 497.349 324.039 497.219 322.086C497.089 320.003 497.023 318.049 497.023 316.227C497.023 313.362 497.349 309.586 498 304.898C498.781 300.081 499.953 294.938 501.516 289.469C503.078 284 504.901 278.531 506.984 273.062C509.198 267.594 511.737 262.646 514.602 258.219C517.466 253.792 520.656 250.211 524.172 247.477C527.688 244.742 531.529 243.375 535.695 243.375C536.997 243.375 538.299 243.701 539.602 244.352C540.904 245.003 542.206 245.719 543.508 246.5L547.414 248.844C548.716 249.495 550.083 250.016 551.516 250.406C551.906 252.099 552.557 254.898 553.469 258.805C554.38 262.711 555.357 267.138 556.398 272.086C557.44 276.904 558.482 282.047 559.523 287.516C560.695 292.984 561.802 298.193 562.844 303.141C563.885 307.958 564.797 312.385 565.578 316.422C566.49 320.328 567.076 323.193 567.336 325.016C567.466 325.927 567.661 327.49 567.922 329.703C568.312 331.786 568.573 334 568.703 336.344C568.964 338.818 569.159 341.096 569.289 343.18C569.549 345.263 569.68 346.695 569.68 347.477C569.68 351.253 569.419 355.68 568.898 360.758C568.378 365.836 567.466 371.044 566.164 376.383C564.862 381.721 563.169 386.995 561.086 392.203C559.003 397.411 556.398 402.099 553.273 406.266C550.148 410.432 546.438 413.753 542.141 416.227C537.974 418.831 533.156 420.133 527.688 420.133C524.562 420.133 522.479 418.961 521.438 416.617C520.396 414.273 519.875 411.669 519.875 408.805ZM503.664 314.469V317.789C503.664 318.961 503.794 320.133 504.055 321.305C504.315 322.346 504.771 323.323 505.422 324.234C506.073 325.016 507.115 325.406 508.547 325.406C510.891 325.276 513.234 323.974 515.578 321.5C518.052 319.026 520.266 316.161 522.219 312.906C524.302 309.651 526.125 306.396 527.688 303.141C529.38 299.755 530.552 297.216 531.203 295.523C531.724 294.352 532.505 292.138 533.547 288.883C534.719 285.628 535.891 282.242 537.062 278.727C538.234 275.081 539.341 271.63 540.383 268.375C541.424 264.99 542.141 262.646 542.531 261.344V260.367C542.531 259.326 542.076 258.414 541.164 257.633C540.383 256.852 539.406 256.266 538.234 255.875C537.193 255.484 536.086 255.159 534.914 254.898C533.742 254.638 532.766 254.508 531.984 254.508C529.12 254.508 526.385 255.875 523.781 258.609C521.307 261.344 519.029 264.794 516.945 268.961C514.862 273.128 512.974 277.685 511.281 282.633C509.719 287.451 508.352 292.138 507.18 296.695C506.008 301.122 505.096 305.029 504.445 308.414C503.924 311.669 503.664 313.688 503.664 314.469ZM582.766 259.391L594.289 306.852H596.633C597.023 302.685 597.74 298.258 598.781 293.57C599.953 288.883 601.516 284.26 603.469 279.703C605.422 275.016 607.701 270.523 610.305 266.227C613.039 261.93 616.099 258.154 619.484 254.898C622.87 251.643 626.646 249.039 630.812 247.086C635.109 245.133 639.797 244.156 644.875 244.156C644.875 247.281 643.573 250.016 640.969 252.359C638.495 254.703 635.5 256.982 631.984 259.195C628.469 261.409 624.823 263.753 621.047 266.227C617.401 268.701 614.536 271.695 612.453 275.211C610.24 278.727 608.417 282.828 606.984 287.516C605.682 292.073 604.576 296.826 603.664 301.773C602.883 306.591 602.297 311.474 601.906 316.422C601.516 321.24 601.19 325.602 600.93 329.508C600.148 330.68 599.302 331.786 598.391 332.828C597.609 333.74 596.568 334.195 595.266 334.195C594.745 334.195 594.094 334.065 593.312 333.805C592.531 333.414 592.01 332.698 591.75 331.656L577.688 259.391H582.766ZM649.367 313.688C649.367 309.911 649.758 305.224 650.539 299.625C651.451 294.026 652.688 288.232 654.25 282.242C655.943 276.122 658.026 270.003 660.5 263.883C663.104 257.763 666.034 252.294 669.289 247.477C672.544 242.529 676.255 238.557 680.422 235.562C684.589 232.568 689.146 231.07 694.094 231.07C694.094 232.893 693.312 234.716 691.75 236.539C690.318 238.232 688.625 239.924 686.672 241.617C684.849 243.18 682.961 244.742 681.008 246.305C679.055 247.737 677.688 249.104 676.906 250.406C673.781 254.443 670.982 258.935 668.508 263.883C666.034 268.701 663.885 273.714 662.062 278.922C660.24 284 658.807 289.273 657.766 294.742C656.724 300.081 656.203 305.289 656.203 310.367C656.203 311.148 656.333 312.385 656.594 314.078C656.854 315.641 657.18 317.268 657.57 318.961C658.091 320.654 658.742 322.151 659.523 323.453C660.305 324.625 661.151 325.211 662.062 325.211H662.648C662.779 325.211 662.909 325.146 663.039 325.016C666.555 321.109 669.484 316.878 671.828 312.32C674.172 307.763 676.19 303.076 677.883 298.258C679.576 293.31 681.008 288.297 682.18 283.219C683.352 278.141 684.523 273.128 685.695 268.18C686.086 266.747 686.216 264.599 686.086 261.734C686.086 258.87 686.216 256.07 686.477 253.336C686.867 250.602 687.583 248.258 688.625 246.305C689.667 244.221 691.555 243.18 694.289 243.18C694.81 243.18 695.396 243.245 696.047 243.375C696.828 243.375 697.219 243.44 697.219 243.57C702.036 253.596 706.138 262.125 709.523 269.156C712.909 276.057 715.773 281.786 718.117 286.344C720.461 290.901 722.349 294.482 723.781 297.086C725.214 299.69 726.255 301.708 726.906 303.141C727.688 304.443 728.208 305.354 728.469 305.875C728.729 306.266 728.859 306.591 728.859 306.852C728.99 307.372 729.12 308.349 729.25 309.781C729.38 311.083 729.445 312.516 729.445 314.078C729.576 315.51 729.641 316.943 729.641 318.375C729.771 319.677 729.836 320.523 729.836 320.914C728.534 320.914 727.102 320.849 725.539 320.719C723.977 320.589 722.87 319.742 722.219 318.18L697.219 266.227L695.07 263.883C694.68 265.315 693.898 267.854 692.727 271.5C691.685 275.146 690.513 279.052 689.211 283.219C688.039 287.255 686.932 291.096 685.891 294.742C684.849 298.388 684.133 300.927 683.742 302.359C682.961 304.312 681.919 307.047 680.617 310.562C679.445 314.078 677.948 317.594 676.125 321.109C674.302 324.625 672.219 327.685 669.875 330.289C667.531 332.893 664.927 334.195 662.062 334.195C659.719 334.195 657.766 333.479 656.203 332.047C654.641 330.484 653.339 328.596 652.297 326.383C651.255 324.169 650.474 321.891 649.953 319.547C649.562 317.203 649.367 315.25 649.367 313.688ZM729.836 228.727C730.878 228.727 732.049 228.857 733.352 229.117C734.654 229.378 735.826 229.898 736.867 230.68C737.909 231.331 738.69 232.242 739.211 233.414C739.862 234.586 739.927 236.083 739.406 237.906C739.927 237.776 740.708 237.646 741.75 237.516C742.792 237.255 743.898 236.995 745.07 236.734C746.372 236.474 747.544 236.279 748.586 236.148C749.628 235.888 750.344 235.693 750.734 235.562H751.711C757.18 235.562 762.714 236.474 768.312 238.297C773.911 239.99 778.924 242.464 783.352 245.719C787.779 248.974 791.424 252.945 794.289 257.633C797.284 262.32 798.781 267.594 798.781 273.453C798.781 279.964 797.284 285.953 794.289 291.422C791.294 296.76 787.388 301.383 782.57 305.289C777.883 309.195 772.544 312.255 766.555 314.469C760.695 316.682 754.836 317.789 748.977 317.789C748.977 321.565 749.302 325.341 749.953 329.117C750.734 332.763 751.451 336.344 752.102 339.859C752.883 343.505 753.599 347.086 754.25 350.602C755.031 354.247 755.422 357.828 755.422 361.344C755.422 362.385 755.031 363.232 754.25 363.883C753.599 364.534 752.753 364.859 751.711 364.859C750.539 364.859 749.562 364.339 748.781 363.297C748.13 362.255 747.609 361.083 747.219 359.781C746.958 358.479 746.698 357.177 746.438 355.875C746.307 354.703 746.242 353.857 746.242 353.336C745.982 351.513 745.526 348.583 744.875 344.547C744.354 340.641 743.703 336.279 742.922 331.461C742.141 326.513 741.294 321.37 740.383 316.031C739.602 310.562 738.82 305.354 738.039 300.406C737.388 295.458 736.737 291.096 736.086 287.32C735.565 283.414 735.174 280.549 734.914 278.727L729.836 228.727ZM739.211 254.898V256.852C739.211 257.503 739.211 258.284 739.211 259.195C739.341 259.977 739.406 260.693 739.406 261.344V262.711C739.667 264.924 739.992 267.594 740.383 270.719C740.773 273.844 741.229 277.164 741.75 280.68C742.271 284.065 742.792 287.516 743.312 291.031C743.833 294.547 744.289 297.737 744.68 300.602C745.07 303.336 745.396 305.615 745.656 307.438C745.917 309.26 746.112 310.237 746.242 310.367C751.451 311.539 756.724 311.279 762.062 309.586C767.401 307.763 772.219 304.964 776.516 301.188C780.812 297.281 784.393 292.789 787.258 287.711C790.122 282.633 791.62 277.424 791.75 272.086C791.75 267.268 790.578 263.167 788.234 259.781C786.021 256.266 783.156 253.401 779.641 251.188C776.125 248.844 772.154 247.151 767.727 246.109C763.43 244.938 759.133 244.352 754.836 244.352C752.753 244.352 750.734 244.482 748.781 244.742C746.958 245.003 745.331 245.458 743.898 246.109C742.466 246.76 741.294 247.802 740.383 249.234C739.602 250.667 739.211 252.555 739.211 254.898ZM806.984 183.609L815.383 182.242L824.367 288.688C825.279 284.26 826.646 279.443 828.469 274.234C830.292 269.026 832.701 264.273 835.695 259.977C838.82 255.68 842.596 252.359 847.023 250.016C851.581 247.542 856.854 246.891 862.844 248.062C867.01 248.714 870.591 250.341 873.586 252.945C876.711 255.419 879.38 258.479 881.594 262.125C883.807 265.771 885.565 269.807 886.867 274.234C888.299 278.531 889.406 282.958 890.188 287.516C890.969 291.943 891.49 296.24 891.75 300.406C892.141 304.573 892.336 308.219 892.336 311.344C892.336 314.078 892.076 315.966 891.555 317.008C891.164 317.919 889.992 318.375 888.039 318.375C887.128 318.375 886.216 318.31 885.305 318.18C884.393 317.919 883.742 317.138 883.352 315.836C883.612 313.362 883.742 310.107 883.742 306.07C883.742 302.034 883.482 297.867 882.961 293.57C882.57 289.273 881.854 284.977 880.812 280.68C879.771 276.253 878.273 272.281 876.32 268.766C874.497 265.25 872.089 262.451 869.094 260.367C866.099 258.154 862.518 257.047 858.352 257.047C854.055 257.047 850.279 258.023 847.023 259.977C843.898 261.799 841.229 264.208 839.016 267.203C836.932 270.198 835.24 273.583 833.938 277.359C832.635 281.005 831.724 284.781 831.203 288.688C831.203 289.729 831.073 291.422 830.812 293.766C830.682 295.979 830.487 298.518 830.227 301.383C829.966 304.117 829.771 307.112 829.641 310.367C829.51 313.492 829.38 316.487 829.25 319.352C829.12 322.086 828.99 324.56 828.859 326.773C828.859 328.987 828.859 330.615 828.859 331.656C828.469 332.958 827.883 333.74 827.102 334C826.32 334.13 825.409 334.195 824.367 334.195C824.237 334.195 823.846 334.13 823.195 334C822.674 334 822.284 334 822.023 334L806.984 183.609ZM976.125 366.031C976.125 358.609 976.516 351.253 977.297 343.961C978.078 336.799 978.469 329.573 978.469 322.281C978.469 319.156 977.557 316.487 975.734 314.273C974.042 311.93 971.958 309.911 969.484 308.219C962.714 303.271 956.138 298.648 949.758 294.352C943.508 290.055 937.388 285.758 931.398 281.461C925.409 277.034 919.484 272.411 913.625 267.594C907.896 262.776 902.297 257.372 896.828 251.383L901.32 246.891C902.622 247.932 904.641 249.56 907.375 251.773C910.109 253.857 913.169 256.266 916.555 259C919.94 261.604 923.521 264.404 927.297 267.398C931.073 270.393 934.654 273.258 938.039 275.992C941.555 278.596 944.68 281.005 947.414 283.219C950.148 285.302 952.167 286.799 953.469 287.711C954.901 288.753 956.789 290.055 959.133 291.617C961.607 293.049 964.016 294.482 966.359 295.914C968.833 297.346 970.982 298.648 972.805 299.82C974.758 300.862 975.865 301.383 976.125 301.383H978.469V298.844C978.599 297.151 978.664 294.612 978.664 291.227C978.794 287.841 978.924 284.065 979.055 279.898C979.185 275.602 979.315 271.044 979.445 266.227C979.706 261.409 979.901 256.852 980.031 252.555C980.292 248.258 980.422 244.417 980.422 241.031C980.552 237.646 980.617 235.107 980.617 233.414C981.138 231.982 982.115 231.135 983.547 230.875C985.109 230.484 986.477 230.289 987.648 230.289C987.648 241.617 987.518 253.01 987.258 264.469L986.086 298.453C985.826 309.911 985.565 321.37 985.305 332.828C985.044 344.156 985.044 355.484 985.305 366.812C984.654 367.854 983.872 368.896 982.961 369.938C982.049 371.109 980.878 371.695 979.445 371.695C978.143 371.695 977.232 371.044 976.711 369.742C976.32 368.44 976.125 367.203 976.125 366.031ZM996.242 325.992C996.242 323.779 996.828 321.891 998 320.328C999.172 318.766 1000.86 317.984 1003.08 317.984C1005.16 317.984 1006.85 318.375 1008.16 319.156C1009.59 319.938 1010.3 321.5 1010.3 323.844C1010.3 326.448 1009.39 328.857 1007.57 331.07C1005.88 333.284 1003.66 334.391 1000.93 334.391C999.888 334.391 999.042 334.13 998.391 333.609C997.74 332.958 997.219 332.242 996.828 331.461C996.568 330.549 996.372 329.638 996.242 328.727C996.242 327.685 996.242 326.773 996.242 325.992Z" fill="black"/>
</g>
</svg>
