<?xml version="1.0" encoding="iso-8859-1"?>
<!-- Generator: Adobe Illustrator 19.0.0, SVG Export Plug-In . SVG Version: 6.00 Build 0)  -->
<svg version="1.1" id="&#x30EC;&#x30A4;&#x30E4;&#x30FC;_2"
	 xmlns="http://www.w3.org/2000/svg" xmlns:xlink="http://www.w3.org/1999/xlink" x="0px" y="0px" viewBox="226 106 902 239"
	 style="enable-background:new 226 106 902 239;" xml:space="preserve">
<path style="fill:#FF6C6C;" d="M241.446,289.195c-3.756-29.793-7.447-53.509-10.968-70.489l-0.034-0.163
	c-1.836-8.845-3.289-17.872-4.319-26.831c-1.467-12.753-2.036-21.759-1.738-27.531l0.005-0.102c0.036-0.688,0.147-2.78-0.004-5.536
	c-0.117-2.145-0.369-4.283-0.747-6.356l13.772-2.515c0.484,2.65,0.805,5.377,0.954,8.106c0.192,3.507,0.051,6.166,0.005,7.04
	c-0.179,3.465-0.031,10.585,1.661,25.294c0.982,8.542,2.368,17.15,4.119,25.584l0.034,0.166c3.596,17.339,7.348,41.422,11.15,71.58
	L241.446,289.195z"/>
<path style="fill:#FF6C6C;" d="M242.145,245.835l-2.82-13.713c17.345-3.567,21.912-5.078,22.346-5.229
	c4.333-1.68,10.836-4.224,16.373-10.437c3.055-3.428,4.649-6.689,5.193-7.932c0.282-0.643,2.741-6.451,2.403-12.087
	c-0.742-12.367-15.332-20.654-16.993-21.558c-15.054-8.197-32.909-0.222-33.088-0.141l-5.812-12.736
	c0.989-0.451,24.464-10.921,45.593,0.581c3.848,2.095,23.106,13.532,24.274,33.016c0.51,8.501-2.589,16.338-3.552,18.538
	c-1.009,2.306-3.333,6.884-7.567,11.634c-7.812,8.769-16.936,12.305-21.837,14.204C265.909,240.266,261.2,241.916,242.145,245.835z"
	/>
<path style="fill:#FF6C6C;" d="M315.008,258.364l-14.462-150.148l13.936-1.342l8.35,86.692c2.448-6.091,5.439-11.074,8.964-14.918
	c5.676-6.192,12.621-9.429,20.639-9.62c9.005-0.208,16.72,2.932,22.929,9.353c18.475,19.104,16.232,62.152,16.128,63.976
	l-13.978-0.801c0.602-10.731-0.421-41.263-12.224-53.452c-3.425-3.538-7.524-5.2-12.522-5.08c-4.177,0.1-7.56,1.713-10.647,5.078
	c-13.423,14.633-14.05,54.879-13.159,69.152L315.008,258.364z"/>
<path style="fill:#FF6C6C;" d="M413.53,260.534c-3.557,0-7.842-0.718-11.79-3.497c-5.949-4.189-7.584-10.611-8.283-13.354
	c-3.566-14.004-2.611-28.574,0.243-49.01c1.726-12.358,3.091-18.93,8.136-25.777c3.34-4.534,7.643-8.329,12.788-11.279l1.47-0.843
	l1.693-0.077c3.651-0.167,9.237,0.28,15.066,3.353c5.163,2.721,9.522,7.078,12.277,12.269l0.294,0.628
	c4.844,11.827,7.166,24.076,6.901,36.406c-0.232,10.809-0.583,27.144-12.596,39.589c-5.696,5.903-12.617,9.697-20.013,10.97
	C418.312,260.155,416.113,260.534,413.53,260.534z M420.064,170.696c-2.772,1.812-5.107,3.994-6.957,6.505
	c-3.035,4.12-3.955,8.046-5.542,19.41c-3.046,21.811-3.188,33.226-0.541,43.618c0.549,2.155,1.266,4.298,2.776,5.361
	c2.083,1.467,5.5,0.877,7.542,0.526c3.097-0.533,7.747-2.162,12.313-6.895c8.208-8.503,8.477-21.025,8.673-30.168
	c0.221-10.278-1.703-20.521-5.718-30.451c-0.914-1.631-2.847-4.354-6.286-6.167C424.05,171.236,421.839,170.802,420.064,170.696z"/>
<rect x="502.769" y="135.108" transform="matrix(0.1855 0.9826 -0.9826 0.1855 600.9365 -346.9792)" style="fill:#FF6C6C;" width="14" height="107.782"/>
<rect x="434.6" y="184.977" transform="matrix(0.096 0.9954 -0.9954 0.096 644.0283 -325.1904)" style="fill:#FF6C6C;" width="132.898" height="14"/>
<path style="fill:#FF6C6C;" d="M569.536,260.223c-2.654,0-4.358-0.27-4.56-0.304l-1.112-0.185l-0.998-0.525
	c-2.101-1.105-20.349-12.036-14.305-54.813c6.073-42.973,26.828-47.644,29.175-48.035l1.363-0.227l1.347,0.308
	c0.973,0.223,9.74,2.419,17.822,10.939c13.174,13.889,14.165,33.586,12.675,47.664c-1.818,17.195-7.863,29.809-17.967,37.492
	C584.35,259.098,574.96,260.223,569.536,260.223z M568.753,246.218c2.958,0.104,9.844-0.254,15.903-4.942
	c6.819-5.276,10.98-14.598,12.367-27.704c1.675-15.843-1.157-27.963-8.417-36.022c-3.565-3.957-7.424-5.962-9.599-6.858
	c-3.461,1.869-12.853,9.277-16.582,35.664C558.557,233.726,566.114,243.66,568.753,246.218z"/>
<path style="fill:#FF6C6C;" d="M647.253,346.882c-0.785,0-1.593-0.046-2.427-0.146c-9.485-1.148-16.817-8.941-18.994-14.108
	c-1.716-4.073-0.29-6.882,0.713-8.193c4.049-5.301,10.189-2.123,14.673,0.198c2.282,1.182,4.43,2.613,6.395,4.262l-2.918,3.479
	c0.581,0.225,1.188,0.388,1.813,0.464c1.918,0.229,3.722-0.446,6.744-1.668c2.635-1.063,5.129-2.65,7.214-4.59
	c2.48-2.308,4.343-5.021,6.036-8.798c11.235-25.051,10.878-47.362,10.874-47.584c-0.143-5.521-0.647-7.798-3.074-18.741
	c-1.488-6.711-3.737-16.854-6.994-32.768c-0.535-2.617-1.174-5.202-1.85-7.94c-0.515-2.083-1.046-4.237-1.528-6.406l-0.182-0.819
	c-0.017-0.073-0.033-0.146-0.048-0.217c-15.46,47.267-27.363,55.323-32.073,56.5c-5.849,1.465-10.862,0.861-14.899-1.791
	c-4.869-3.2-7.574-8.901-8.041-16.945c-1.211-20.861,12.666-54.775,27.496-67.2c0.152-0.13,0.576-0.565,0.885-0.883
	c2.238-2.299,6.403-6.578,12.914-7.317c5.159-0.59,9.296,1.222,10.837,2.026c5.047,2.64,7.433,6.827,10.453,12.126
	c0.884,1.551,1.708,3.154,2.448,4.764l-1.831,0.842c0.843,1.387,1.601,2.819,2.27,4.291c1.7,3.74,2.354,6.692,3.259,10.778
	l0.179,0.809c0.447,2.01,0.937,3.991,1.454,6.088c0.68,2.751,1.382,5.597,1.974,8.489c3.233,15.802,5.468,25.877,6.946,32.543
	c2.542,11.461,3.225,14.541,3.402,21.424c0.026,1.031,0.505,25.565-12.096,53.661c-2.462,5.492-5.41,9.725-9.275,13.32
	c-3.325,3.093-7.303,5.623-11.504,7.32C655.436,345.387,651.736,346.882,647.253,346.882z M652.028,179.553
	c-0.152,0-0.308,0.008-0.466,0.026c-1.545,0.175-3.094,1.767-4.461,3.171c-0.639,0.657-1.243,1.277-1.927,1.85
	c-11.241,9.418-23.443,39.588-22.51,55.658c0.234,4.033,1.249,5.726,1.753,6.057c0.257,0.169,1.047,0.483,3.076,0.076
	c1.974-1.484,12.95-11.73,28.036-64.216l0.233-0.812c-0.49-0.604-0.943-1.006-1.429-1.261
	C654.289,180.079,653.267,179.553,652.028,179.553z"/>
<path style="fill:none;stroke:#FF6C6C;stroke-width:14;stroke-miterlimit:10;" d="M628.654,268.327"/>
<path style="fill:#FF6C6C;" d="M706.479,258.846l-17.014-73.586l13.641-3.153l8.318,35.979c0.523-1.649,1.086-3.29,1.687-4.921
	c4.51-12.242,11.071-23.534,19.501-33.561l0.685-0.813l23.438-15.036l7.559,11.783l-21.633,13.878
	c-7.063,8.582-12.583,18.195-16.412,28.588c-4.595,12.474-6.599,25.57-5.956,38.928L706.479,258.846z"/>
<path style="fill:#FF6C6C;" d="M780.469,262.595c-0.441,0-0.89-0.031-1.348-0.094c-4.273-0.588-6.514-3.617-9.349-7.451
	c-1.112-1.503-3.721-5.026-5.63-10.277c-2.219-6.103-2.901-12.83-2.084-20.566c2.943-27.843,18.524-49.3,19.187-50.2
	c6.886-9.314,15.313-17.438,25.061-24.16l7.845,11.376c1.854,1.057,4.021,3.36,3.218,8.26c-0.055,0.333-0.125,0.743-0.211,1.233
	l36.381,72.349l-12.508,6.289l-29.049-57.767c-4.005,16.798-9.311,37.925-13.465,48.645
	C793.991,251.903,788.671,262.594,780.469,262.595z M802.432,171.021c-3.629,3.496-6.943,7.269-9.918,11.292
	c-0.131,0.178-13.986,19.28-16.533,43.363c-0.588,5.571-0.156,10.252,1.319,14.311c0.999,2.747,2.324,4.786,3.217,6.036
	c1.191-2.067,2.844-5.432,4.946-10.853c5.017-12.945,12.442-44.765,16.012-60.057C801.828,173.598,802.148,172.224,802.432,171.021z
	"/>
<rect x="789.877" y="216.878" transform="matrix(0.1326 0.9912 -0.9912 0.1326 968.308 -658.6756)" style="fill:#FF6C6C;" width="141.186" height="14"/>
<path style="fill:#FF6C6C;" d="M865.149,245.553v-7l-0.866-6.946c0.237-0.03,23.845-3.156,34.523-16.557
	c1.311-1.643,7.744-10.384,5.814-21.206c-1.82-10.21-9.961-15.905-12.637-17.776c-15.079-10.55-35.745-3.311-35.953-3.237
	l-4.732-13.176c1.124-0.403,27.757-9.717,48.665,4.909c10.369,7.253,16.559,16.267,18.44,26.823
	c2.911,16.333-5.884,28.92-8.649,32.389C895.062,242.213,865.422,245.553,865.149,245.553z"/>
<path style="fill:#FF6C6C;" d="M936.494,259.108c-0.064-0.484-0.33-2.556-0.596-5.769l-15.05-146.625l13.928-1.43l8.89,86.61
	c5.393-11.408,14.064-20.442,27.822-23.062c9.809-1.868,18.48,0.364,25.082,6.456c19.32,17.828,14.985,63.504,14.427,68.653
	l-13.918-1.508c1.293-12.055,2.018-45.775-10.009-56.862c-3.347-3.085-7.462-4.035-12.963-2.987
	c-28.129,5.358-25.203,58.583-24.033,71.745l0.322,3.138L936.494,259.108z"/>
<rect x="1004.726" y="197.763" transform="matrix(0.7986 0.6019 -0.6019 0.7986 336.1908 -595.0557)" style="fill:#FF6C6C;" width="104.842" height="13.999"/>
<rect x="1092.322" y="155.074" transform="matrix(0.9998 0.0215 -0.0215 0.9998 5.1499 -23.5668)" style="fill:#FF6C6C;" width="13.999" height="145.614"/>
<rect x="1112.326" y="243.153" transform="matrix(0.2708 0.9626 -0.9626 0.2708 1056.7373 -894.6934)" style="fill:#FF6C6C;" width="13.171" height="14"/>
</svg>
